<svg width="200" height="25" viewBox="0 0 200 25" fill="none" xmlns="http://www.w3.org/2000/svg">
<path fill-rule="evenodd" clip-rule="evenodd" d="M25 12.5C25 19.4036 19.4036 25 12.5 25C12.3039 25 12.1089 24.9955 11.9151 24.9866L13.0202 20.1984L19.5807 21.595L20.532 18.4096L13.7102 16.9574L14.261 14.3698C14.4168 13.6379 14.6743 13.1554 15.0336 12.9223C15.4103 12.6928 15.982 12.6597 16.7487 12.8229L23.3092 14.2194L23.9991 10.9784L15.7397 9.2202C14.276 8.90862 13.178 8.97544 12.4457 9.42063C11.7309 9.86954 11.2269 10.7823 10.9339 12.1589L8.23508 24.2535C7.5346 23.9993 6.86329 23.6842 6.22754 23.3147L10.2219 6.26207L15.2141 7.32477L15.904 4.08373L5.81476 1.93603C7.74815 0.709943 10.0412 0 12.5 0C19.4036 0 25 5.59644 25 12.5ZM2.75378 4.67234C1.03098 6.81466 0 9.53693 0 12.5C0 15.6205 1.14343 18.4739 3.03415 20.6641L6.58878 5.48869L2.75378 4.67234Z" fill="#14B8A6"/>
<path d="M37 19H33.4V7.8H29.2V5H41.2V7.8H37V19ZM52.2063 16C52.2063 17 51.9196 17.7867 51.3463 18.36C50.7863 18.92 50.0062 19.2 49.0063 19.2H44.4063C43.4063 19.2 42.6196 18.92 42.0463 18.36C41.4863 17.7867 41.2063 17 41.2063 16V11.4C41.2063 10.4 41.4863 9.62 42.0463 9.06C42.6196 8.48667 43.4063 8.2 44.4063 8.2H49.0063C50.0062 8.2 50.7863 8.48667 51.3463 9.06C51.9196 9.62 52.2063 10.4 52.2063 11.4V16ZM48.7063 11.7C48.7063 11.1667 48.4396 10.9 47.9063 10.9H45.5063C44.9729 10.9 44.7063 11.1667 44.7063 11.7V15.7C44.7063 16.2333 44.9729 16.5 45.5063 16.5H47.9063C48.4396 16.5 48.7063 16.2333 48.7063 15.7V11.7ZM61.5039 19L61.3039 18C60.6772 18.4133 60.0306 18.72 59.3639 18.92C58.7106 19.1067 58.1572 19.2 57.7039 19.2H56.8039C55.8972 19.2 55.1706 18.9267 54.6239 18.38C54.0772 17.8333 53.8039 17.1067 53.8039 16.2V11.6C53.8039 10.6 54.0839 9.82 54.6439 9.26C55.2172 8.68667 56.0039 8.4 57.0039 8.4H61.1039V5H64.6039V19H61.5039ZM58.7039 16.3C59.4106 16.3 60.2106 16.1667 61.1039 15.9V11.1H58.1039C57.5706 11.1 57.3039 11.3667 57.3039 11.9V15.6C57.3039 15.8 57.3706 15.9667 57.5039 16.1C57.6372 16.2333 57.8039 16.3 58.0039 16.3H58.7039ZM77.4016 16C77.4016 17 77.1149 17.7867 76.5416 18.36C75.9816 18.92 75.2016 19.2 74.2016 19.2H69.6016C68.6016 19.2 67.8149 18.92 67.2416 18.36C66.6816 17.7867 66.4016 17 66.4016 16V11.4C66.4016 10.4 66.6816 9.62 67.2416 9.06C67.8149 8.48667 68.6016 8.2 69.6016 8.2H74.2016C75.2016 8.2 75.9816 8.48667 76.5416 9.06C77.1149 9.62 77.4016 10.4 77.4016 11.4V16ZM73.9016 11.7C73.9016 11.1667 73.6349 10.9 73.1016 10.9H70.7016C70.1682 10.9 69.9016 11.1667 69.9016 11.7V15.7C69.9016 16.2333 70.1682 16.5 70.7016 16.5H73.1016C73.6349 16.5 73.9016 16.2333 73.9016 15.7V11.7ZM82.9992 19H79.3992V5H90.4992V7.8H82.9992V11.1H88.8992V13.9H82.9992V19ZM96.2086 16.3C96.9153 16.3 97.7153 16.1667 98.6086 15.9V8.4H102.109V19H99.0086L98.8086 18C98.1819 18.4133 97.5353 18.72 96.8686 18.92C96.2153 19.1067 95.6619 19.2 95.2086 19.2H94.3086C93.4019 19.2 92.6753 18.9267 92.1286 18.38C91.5819 17.8333 91.3086 17.1067 91.3086 16.2V8.4H94.8086V15.6C94.8086 15.8 94.8753 15.9667 95.0086 16.1C95.1419 16.2333 95.3086 16.3 95.5086 16.3H96.2086ZM95.1086 7.8L96.3086 4.4H99.9086L97.7086 7.8H95.1086ZM111.502 19C110.208 19.1333 108.942 19.2 107.702 19.2C106.795 19.2 106.068 18.9267 105.522 18.38C104.975 17.8333 104.702 17.1067 104.702 16.2V11.1H103.502V8.4H104.702L105.102 6H108.202V8.4H110.702V11.1H108.202V15.7C108.202 15.9 108.268 16.0667 108.402 16.2C108.535 16.3333 108.702 16.4 108.902 16.4H111.502V19ZM120.01 11.6C120.01 11.4 119.943 11.2333 119.81 11.1C119.677 10.9667 119.51 10.9 119.31 10.9H118.81C118.25 10.9 117.763 10.9267 117.35 10.98C116.95 11.0333 116.637 11.0733 116.41 11.1V16.3H119.21C119.743 16.3 120.01 16.0333 120.01 15.5V11.6ZM116.41 8.6C117.703 8.33333 118.837 8.2 119.81 8.2H120.51C121.417 8.2 122.143 8.47333 122.69 9.02C123.237 9.56667 123.51 10.2933 123.51 11.2V15.8C123.51 16.8 123.223 17.5867 122.65 18.16C122.09 18.72 121.31 19 120.31 19H112.91V5H116.41V8.6ZM136.113 16C136.113 17 135.826 17.7867 135.253 18.36C134.693 18.92 133.912 19.2 132.913 19.2H128.313C127.313 19.2 126.526 18.92 125.953 18.36C125.393 17.7867 125.113 17 125.113 16V11.4C125.113 10.4 125.393 9.62 125.953 9.06C126.526 8.48667 127.313 8.2 128.313 8.2H132.913C133.912 8.2 134.693 8.48667 135.253 9.06C135.826 9.62 136.113 10.4 136.113 11.4V16ZM132.613 11.7C132.613 11.1667 132.346 10.9 131.813 10.9H129.413C128.879 10.9 128.613 11.1667 128.613 11.7V15.7C128.613 16.2333 128.879 16.5 129.413 16.5H131.813C132.346 16.5 132.613 16.2333 132.613 15.7V11.7ZM143.31 19C142.417 19.1333 141.563 19.2 140.75 19.2C139.95 19.2 139.277 18.9267 138.73 18.38C138.183 17.8333 137.91 17.1067 137.91 16.2V5H141.41V15.7C141.41 15.9 141.477 16.0667 141.61 16.2C141.743 16.3333 141.91 16.4 142.11 16.4H143.31V19Z" fill="#494949"/>
<path d="M149.818 21.744C149.698 21.744 149.602 21.708 149.53 21.636C149.458 21.564 149.422 21.468 149.422 21.348V2.268C149.422 2.148 149.458 2.052 149.53 1.98C149.602 1.908 149.698 1.872 149.818 1.872H150.124C150.244 1.872 150.34 1.908 150.412 1.98C150.484 2.052 150.52 2.148 150.52 2.268V21.348C150.52 21.468 150.484 21.564 150.412 21.636C150.34 21.708 150.244 21.744 150.124 21.744H149.818ZM161.523 18.18C160.551 18.18 159.723 18.024 159.039 17.712C158.367 17.4 157.851 16.998 157.491 16.506C157.131 16.014 156.939 15.492 156.915 14.94C156.915 14.844 156.951 14.76 157.023 14.688C157.095 14.616 157.185 14.58 157.293 14.58H157.653C157.773 14.58 157.863 14.616 157.923 14.688C157.995 14.76 158.037 14.844 158.049 14.94C158.097 15.276 158.247 15.612 158.499 15.948C158.751 16.272 159.123 16.548 159.615 16.776C160.107 16.992 160.743 17.1 161.523 17.1C162.699 17.1 163.557 16.89 164.097 16.47C164.637 16.038 164.907 15.462 164.907 14.742C164.907 14.262 164.763 13.878 164.475 13.59C164.199 13.29 163.773 13.026 163.197 12.798C162.621 12.558 161.883 12.294 160.983 12.006C160.131 11.73 159.429 11.448 158.877 11.16C158.325 10.86 157.917 10.5 157.653 10.08C157.401 9.66 157.275 9.12 157.275 8.46C157.275 7.848 157.437 7.302 157.761 6.822C158.085 6.33 158.553 5.94 159.165 5.652C159.789 5.364 160.545 5.22 161.433 5.22C162.141 5.22 162.759 5.316 163.287 5.508C163.815 5.7 164.253 5.958 164.601 6.282C164.949 6.594 165.213 6.936 165.393 7.308C165.573 7.668 165.669 8.022 165.681 8.37C165.681 8.454 165.651 8.538 165.591 8.622C165.531 8.694 165.435 8.73 165.303 8.73H164.943C164.883 8.73 164.805 8.706 164.709 8.658C164.625 8.61 164.571 8.514 164.547 8.37C164.475 7.77 164.157 7.278 163.593 6.894C163.041 6.498 162.321 6.3 161.433 6.3C160.545 6.3 159.819 6.474 159.255 6.822C158.691 7.17 158.409 7.716 158.409 8.46C158.409 8.94 158.535 9.336 158.787 9.648C159.039 9.948 159.435 10.218 159.975 10.458C160.515 10.686 161.211 10.938 162.063 11.214C162.963 11.502 163.707 11.79 164.295 12.078C164.883 12.366 165.321 12.72 165.609 13.14C165.897 13.548 166.041 14.082 166.041 14.742C166.041 15.474 165.855 16.098 165.483 16.614C165.123 17.118 164.607 17.508 163.935 17.784C163.263 18.048 162.459 18.18 161.523 18.18ZM171.557 18C170.933 18 170.441 17.868 170.081 17.604C169.721 17.34 169.469 16.98 169.325 16.524C169.181 16.068 169.109 15.558 169.109 14.994V9.684H167.705C167.585 9.684 167.489 9.648 167.417 9.576C167.345 9.504 167.309 9.408 167.309 9.288V9.036C167.309 8.916 167.345 8.82 167.417 8.748C167.489 8.676 167.585 8.64 167.705 8.64H169.109V5.616C169.109 5.496 169.145 5.4 169.217 5.328C169.289 5.256 169.385 5.22 169.505 5.22H169.811C169.931 5.22 170.027 5.256 170.099 5.328C170.171 5.4 170.207 5.496 170.207 5.616V8.64H172.439C172.559 8.64 172.655 8.676 172.727 8.748C172.799 8.82 172.835 8.916 172.835 9.036V9.288C172.835 9.408 172.799 9.504 172.727 9.576C172.655 9.648 172.559 9.684 172.439 9.684H170.207V14.922C170.207 15.558 170.309 16.056 170.513 16.416C170.729 16.776 171.107 16.956 171.647 16.956H172.619C172.739 16.956 172.835 16.992 172.907 17.064C172.979 17.136 173.015 17.232 173.015 17.352V17.604C173.015 17.724 172.979 17.82 172.907 17.892C172.835 17.964 172.739 18 172.619 18H171.557ZM178.44 18.18C177.576 18.18 176.85 18 176.262 17.64C175.686 17.28 175.242 16.788 174.93 16.164C174.63 15.54 174.468 14.844 174.444 14.076C174.432 13.896 174.426 13.644 174.426 13.32C174.426 12.996 174.432 12.744 174.444 12.564C174.468 11.784 174.63 11.088 174.93 10.476C175.242 9.852 175.686 9.36 176.262 9C176.85 8.64 177.576 8.46 178.44 8.46C179.304 8.46 180.024 8.64 180.6 9C181.188 9.36 181.632 9.852 181.932 10.476C182.244 11.088 182.412 11.784 182.436 12.564C182.448 12.744 182.454 12.996 182.454 13.32C182.454 13.644 182.448 13.896 182.436 14.076C182.412 14.844 182.244 15.54 181.932 16.164C181.632 16.788 181.188 17.28 180.6 17.64C180.024 18 179.304 18.18 178.44 18.18ZM178.44 17.136C179.28 17.136 179.964 16.866 180.492 16.326C181.02 15.786 181.302 15.006 181.338 13.986C181.35 13.806 181.356 13.584 181.356 13.32C181.356 13.056 181.35 12.834 181.338 12.654C181.302 11.622 181.02 10.842 180.492 10.314C179.964 9.774 179.28 9.504 178.44 9.504C177.6 9.504 176.916 9.774 176.388 10.314C175.86 10.842 175.578 11.622 175.542 12.654C175.53 12.834 175.524 13.056 175.524 13.32C175.524 13.584 175.53 13.806 175.542 13.986C175.578 15.006 175.86 15.786 176.388 16.326C176.916 16.866 177.6 17.136 178.44 17.136ZM185.309 18C185.189 18 185.093 17.964 185.021 17.892C184.949 17.82 184.913 17.724 184.913 17.604V9.054C184.913 8.934 184.949 8.838 185.021 8.766C185.093 8.682 185.189 8.64 185.309 8.64H185.597C185.717 8.64 185.813 8.682 185.885 8.766C185.969 8.838 186.011 8.934 186.011 9.054V9.882C186.227 9.462 186.539 9.15 186.947 8.946C187.355 8.742 187.859 8.64 188.459 8.64H189.125C189.245 8.64 189.341 8.676 189.413 8.748C189.485 8.82 189.521 8.916 189.521 9.036V9.288C189.521 9.408 189.485 9.504 189.413 9.576C189.341 9.648 189.245 9.684 189.125 9.684H188.351C187.631 9.684 187.061 9.894 186.641 10.314C186.221 10.734 186.011 11.304 186.011 12.024V17.604C186.011 17.724 185.969 17.82 185.885 17.892C185.813 17.964 185.717 18 185.597 18H185.309ZM194.434 18.18C193.27 18.18 192.346 17.802 191.662 17.046C190.978 16.278 190.588 15.276 190.492 14.04C190.48 13.86 190.474 13.62 190.474 13.32C190.474 13.02 190.48 12.78 190.492 12.6C190.552 11.784 190.744 11.064 191.068 10.44C191.392 9.816 191.836 9.33 192.4 8.982C192.976 8.634 193.654 8.46 194.434 8.46C195.274 8.46 195.988 8.646 196.576 9.018C197.164 9.39 197.614 9.924 197.926 10.62C198.25 11.316 198.412 12.144 198.412 13.104V13.374C198.412 13.494 198.37 13.59 198.286 13.662C198.214 13.734 198.118 13.77 197.998 13.77H191.59C191.59 13.77 191.59 13.794 191.59 13.842C191.59 13.89 191.59 13.926 191.59 13.95C191.614 14.49 191.74 15.006 191.968 15.498C192.196 15.978 192.52 16.374 192.94 16.686C193.36 16.986 193.858 17.136 194.434 17.136C194.95 17.136 195.376 17.058 195.712 16.902C196.06 16.746 196.336 16.578 196.54 16.398C196.744 16.206 196.876 16.062 196.936 15.966C197.044 15.81 197.128 15.72 197.188 15.696C197.248 15.66 197.344 15.642 197.476 15.642H197.764C197.872 15.642 197.962 15.678 198.034 15.75C198.118 15.81 198.154 15.894 198.142 16.002C198.13 16.17 198.034 16.38 197.854 16.632C197.686 16.872 197.44 17.112 197.116 17.352C196.804 17.592 196.42 17.79 195.964 17.946C195.508 18.102 194.998 18.18 194.434 18.18ZM191.59 12.762H197.314V12.69C197.314 12.09 197.2 11.55 196.972 11.07C196.744 10.59 196.414 10.212 195.982 9.936C195.55 9.648 195.034 9.504 194.434 9.504C193.834 9.504 193.318 9.648 192.886 9.936C192.466 10.212 192.142 10.59 191.914 11.07C191.698 11.55 191.59 12.09 191.59 12.69V12.762Z" fill="#494949"/>
</svg>
